<?xml version="1.0" standalone="no"?>
<!DOCTYPE svg PUBLIC "-//W3C//DTD SVG 20010904//EN"
 "http://www.w3.org/TR/2001/REC-SVG-20010904/DTD/svg10.dtd">
<svg version="1.0" xmlns="http://www.w3.org/2000/svg"
 width="500.000000pt" height="500.000000pt" viewBox="0 0 500.000000 500.000000"
 preserveAspectRatio="xMidYMid meet">

<g transform="translate(0.000000,500.000000) scale(0.100000,-0.100000)"
fill="#000000" stroke="none">
<path d="M1272 3035 c4 -4 30 -12 58 -16 120 -19 236 -106 288 -217 24 -50 27
-69 27 -157 0 -87 -3 -107 -26 -155 -42 -89 -108 -154 -207 -202 l-85 -43
-126 0 c-123 0 -211 15 -211 35 0 6 9 19 20 30 16 16 18 25 10 40 -22 41 -76
8 -66 -41 5 -24 1 -29 -42 -47 -57 -24 -109 -34 -116 -23 -3 4 12 37 33 72 54
91 56 107 24 181 -24 55 -28 76 -28 163 0 110 13 147 80 231 37 44 129 98 188
109 20 4 40 11 43 16 8 13 -7 11 -77 -11 -126 -40 -213 -134 -246 -264 -14
-59 -15 -79 -5 -138 7 -38 21 -87 32 -108 29 -58 25 -92 -20 -167 -22 -37 -40
-76 -40 -86 0 -18 5 -19 49 -14 27 3 69 16 92 27 39 21 44 21 78 6 20 -8 54
-18 76 -21 112 -16 105 -13 105 -50 l0 -35 185 0 c150 0 187 -3 191 -14 6 -15
174 -153 199 -162 12 -5 15 5 15 60 l0 66 70 0 c90 0 136 18 144 57 9 47 38
522 32 532 -3 5 -84 12 -180 16 l-175 7 -7 32 c-11 55 -66 146 -113 188 -58
52 -150 95 -221 104 -30 4 -52 3 -48 -1z m729 -354 c3 -3 -2 -125 -12 -270
-14 -220 -20 -267 -33 -277 -9 -6 -59 -15 -111 -19 l-95 -7 0 -59 0 -59 -90
72 c-50 39 -89 77 -87 82 2 6 27 12 55 14 59 3 68 21 31 61 -31 33 -79 26 -99
-15 -14 -30 -18 -32 -95 -38 -44 -3 -124 -6 -177 -6 l-98 0 0 29 c0 28 2 29
73 39 234 35 396 198 401 403 l1 67 165 -5 c91 -3 168 -8 171 -12z m-991 -346
c0 -20 -37 -39 -43 -22 -7 20 4 37 24 37 10 0 19 -7 19 -15z m631 -115 c10 -6
19 -20 19 -30 0 -17 -7 -20 -50 -20 -54 0 -58 4 -34 38 17 24 35 28 65 12z"/>
<path d="M1037 2664 c-12 -12 -8 -42 6 -47 21 -8 39 8 35 29 -3 19 -29 30 -41
18z"/>
<path d="M1220 2654 c-11 -12 -10 -18 3 -32 16 -15 18 -15 34 0 13 14 14 20 3
32 -7 9 -16 16 -20 16 -4 0 -13 -7 -20 -16z"/>
<path d="M1407 2664 c-10 -10 -9 -42 2 -48 18 -11 42 6 39 28 -3 21 -28 33
-41 20z"/>
<path d="M2733 2612 l-51 -3 -16 -72 c-32 -142 -44 -192 -51 -215 -13 -40 -87
-42 -100 -2 -3 10 8 78 25 150 16 72 30 134 30 136 0 3 -28 4 -62 2 -47 -2
-63 -7 -64 -18 -1 -8 -2 -23 -3 -32 -1 -21 -21 -24 -21 -4 0 8 -12 24 -26 35
-24 19 -40 21 -160 21 -74 0 -134 -3 -134 -8 0 -9 -21 -106 -54 -251 -14 -62
-26 -120 -26 -127 0 -11 28 -14 139 -14 144 0 181 7 218 42 l22 20 25 -25 c57
-57 197 -62 259 -9 15 14 17 13 17 -6 l0 -22 338 0 339 0 10 45 10 45 -101 0
-101 0 117 111 c95 89 120 119 128 151 6 22 10 42 8 44 -5 4 -645 10 -715 6z
m-430 -104 c18 -28 -9 -48 -63 -48 -51 0 -52 1 -34 58 6 19 84 11 97 -10z
m635 13 c-5 -17 -180 -191 -190 -191 -6 0 -7 10 -4 23 4 12 14 57 23 100 l17
77 79 0 c45 0 77 -4 75 -9z m332 1 c0 -4 -50 -56 -111 -115 l-110 -107 -91 0
-91 0 119 115 119 114 83 1 c45 0 82 -4 82 -8z m-860 -79 c0 -5 -3 -18 -6 -30
-6 -21 -7 -21 -30 -6 l-25 16 23 12 c28 16 38 18 38 8z m-130 -78 c30 -37 -16
-77 -85 -73 -42 3 -43 4 -30 66 5 19 12 22 54 22 30 0 53 -5 61 -15z"/>
</g>
</svg>
